<svg xmlns="http://www.w3.org/2000/svg" width="14" height="9" viewBox="0 0 14 9">
    <path fill="#BBB" fill-rule="nonzero" d="M13.937 4.075C13.809 3.91 10.759 0 7 0 3.222 0 .19 3.91.062 4.076a.305.305 0 0 0 .001.37C.191 4.614 3.241 8.523 7 8.523c3.74 0 6.807-3.908 6.936-4.075a.305.305 0 0 0 .001-.372zM5.783 2.13a.913.913 0 1 1 0 1.826.913.913 0 0 1 0-1.826zM7 7.913c-3.013 0-5.654-2.886-6.303-3.653.382-.454 1.462-1.65 2.908-2.55a3.602 3.602 0 0 0-.257 1.333 3.652 3.652 0 0 0 7.304 0c0-.467-.09-.912-.25-1.323 1.437.9 2.516 2.086 2.9 2.54C12.649 5.03 9.996 7.913 7 7.913z"/>
</svg>
